<svg width="138" height="64" viewBox="0 0 138 64" fill="none" xmlns="http://www.w3.org/2000/svg">
<g clip-path="url(#clip0)">
<ellipse cx="71" cy="32.5" rx="42" ry="35.5" fill="#C4C4C4"/>
<path d="M56.3301 41H54.5234V26H56.3301V41ZM58.752 35.6191C58.752 34.584 58.9538 33.653 59.3574 32.8262C59.7676 31.9993 60.334 31.3613 61.0566 30.9121C61.7858 30.4629 62.6159 30.2383 63.5469 30.2383C64.9857 30.2383 66.1478 30.7363 67.0332 31.7324C67.9251 32.7285 68.3711 34.0534 68.3711 35.707V35.834C68.3711 36.8626 68.1725 37.7871 67.7754 38.6074C67.3848 39.4212 66.8216 40.056 66.0859 40.5117C65.3568 40.9674 64.5169 41.1953 63.5664 41.1953C62.1341 41.1953 60.972 40.6973 60.0801 39.7012C59.1947 38.7051 58.752 37.3867 58.752 35.7461V35.6191ZM60.5684 35.834C60.5684 37.0059 60.8385 37.9466 61.3789 38.6562C61.9258 39.3659 62.6549 39.7207 63.5664 39.7207C64.4844 39.7207 65.2135 39.3626 65.7539 38.6465C66.2943 37.9238 66.5645 36.9147 66.5645 35.6191C66.5645 34.4603 66.2878 33.5228 65.7344 32.8066C65.1875 32.084 64.4583 31.7227 63.5469 31.7227C62.6549 31.7227 61.9355 32.0775 61.3887 32.7871C60.8418 33.4967 60.5684 34.5124 60.5684 35.834ZM70.207 35.6289C70.207 33.9818 70.5879 32.6732 71.3496 31.7031C72.1113 30.7266 73.1204 30.2383 74.377 30.2383C75.666 30.2383 76.6719 30.694 77.3945 31.6055L77.4824 30.4336H79.1328V40.7461C79.1328 42.1133 78.7259 43.1908 77.9121 43.9785C77.1048 44.7663 76.0176 45.1602 74.6504 45.1602C73.8887 45.1602 73.1432 44.9974 72.4141 44.6719C71.6849 44.3464 71.1283 43.9004 70.7441 43.334L71.6816 42.25C72.4564 43.207 73.4036 43.6855 74.5234 43.6855C75.4023 43.6855 76.0859 43.4382 76.5742 42.9434C77.069 42.4486 77.3164 41.752 77.3164 40.8535V39.9453C76.5938 40.7786 75.6074 41.1953 74.3574 41.1953C73.1204 41.1953 72.1178 40.6973 71.3496 39.7012C70.5879 38.7051 70.207 37.3477 70.207 35.6289ZM72.0234 35.834C72.0234 37.0254 72.2676 37.9629 72.7559 38.6465C73.2441 39.3236 73.9277 39.6621 74.8066 39.6621C75.946 39.6621 76.7826 39.1445 77.3164 38.1094V33.2852C76.763 32.276 75.9329 31.7715 74.8262 31.7715C73.9473 31.7715 73.2604 32.1133 72.7656 32.7969C72.2708 33.4805 72.0234 34.4928 72.0234 35.834ZM81.3887 35.6191C81.3887 34.584 81.5905 33.653 81.9941 32.8262C82.4043 31.9993 82.9707 31.3613 83.6934 30.9121C84.4225 30.4629 85.2526 30.2383 86.1836 30.2383C87.6224 30.2383 88.7845 30.7363 89.6699 31.7324C90.5618 32.7285 91.0078 34.0534 91.0078 35.707V35.834C91.0078 36.8626 90.8092 37.7871 90.4121 38.6074C90.0215 39.4212 89.4583 40.056 88.7227 40.5117C87.9935 40.9674 87.1536 41.1953 86.2031 41.1953C84.7708 41.1953 83.6087 40.6973 82.7168 39.7012C81.8314 38.7051 81.3887 37.3867 81.3887 35.7461V35.6191ZM83.2051 35.834C83.2051 37.0059 83.4753 37.9466 84.0156 38.6562C84.5625 39.3659 85.2917 39.7207 86.2031 39.7207C87.1211 39.7207 87.8503 39.3626 88.3906 38.6465C88.931 37.9238 89.2012 36.9147 89.2012 35.6191C89.2012 34.4603 88.9245 33.5228 88.3711 32.8066C87.8242 32.084 87.0951 31.7227 86.1836 31.7227C85.2917 31.7227 84.5723 32.0775 84.0254 32.7871C83.4785 33.4967 83.2051 34.5124 83.2051 35.834Z" fill="black"/>
</g>
<defs>
<clipPath id="clip0">
<rect width="138" height="64" fill="white"/>
</clipPath>
</defs>
</svg>
