<svg width="35" height="36" viewBox="0 0 35 36" fill="none" xmlns="http://www.w3.org/2000/svg">
<path d="M31.9246 0.8125H3.07539C1.55 0.8125 0.3125 2.05 0.3125 3.57539V32.4246C0.3125 33.95 1.55 35.1875 3.07539 35.1875H31.9246C33.45 35.1875 34.6875 33.95 34.6875 32.4246V3.57539C34.6875 2.05 33.45 0.8125 31.9246 0.8125ZM31.9246 32.4375C12.6832 32.4332 3.0625 32.4289 3.0625 32.4246C3.0668 13.1832 3.07109 3.5625 3.07539 3.5625C22.3168 3.5668 31.9375 3.57109 31.9375 3.57539C31.9332 22.8168 31.9289 32.4375 31.9246 32.4375ZM5.40859 13.6988H10.509V30.1043H5.40859V13.6988ZM7.96094 11.4559C9.58945 11.4559 10.9172 10.1324 10.9172 8.49961C10.9172 8.11139 10.8407 7.72697 10.6922 7.3683C10.5436 7.00963 10.3258 6.68374 10.0513 6.40922C9.77681 6.13471 9.45091 5.91696 9.09225 5.76839C8.73358 5.61982 8.34916 5.54336 7.96094 5.54336C7.57272 5.54336 7.1883 5.61982 6.82963 5.76839C6.47096 5.91696 6.14507 6.13471 5.87055 6.40922C5.59604 6.68374 5.37828 7.00963 5.22972 7.3683C5.08115 7.72697 5.00469 8.11139 5.00469 8.49961C5.00039 10.1324 6.32383 11.4559 7.96094 11.4559ZM18.802 21.9875C18.802 19.8477 19.2102 17.7766 21.8613 17.7766C24.4738 17.7766 24.5125 20.2215 24.5125 22.125V30.1043H29.6086V21.1066C29.6086 16.6895 28.6547 13.2906 23.4941 13.2906C21.0148 13.2906 19.352 14.6527 18.6688 15.9418H18.6V13.6988H13.7059V30.1043H18.802V21.9875Z" fill="black"/>
</svg>
